<svg width="29" height="24" viewBox="0 0 29 24" fill="none" xmlns="http://www.w3.org/2000/svg">
<path d="M18.2977 7.83808C17.4249 7.44163 16.5013 7.15979 15.5515 7C15.4333 7.20821 15.2936 7.48933 15.1968 7.70796C14.1867 7.56221 13.1598 7.56221 12.1497 7.70796C12.0427 7.46596 11.9225 7.22967 11.7896 7C10.8382 7.16054 9.913 7.44233 9.038 7.83808C7.48137 10.0264 6.78025 12.6802 7.06033 15.3238C8.0775 16.0662 9.21925 16.6333 10.4353 17C10.7098 16.635 10.9525 16.2484 11.1608 15.8443C10.7661 15.7034 10.3848 15.5293 10.0215 15.3238C10.1182 15.2561 10.2096 15.1833 10.301 15.1103C11.353 15.6012 12.5056 15.856 13.6732 15.856C14.8409 15.856 15.9936 15.6012 17.0455 15.1103C17.1369 15.1833 17.2283 15.2561 17.325 15.3238C16.9628 15.5313 16.5813 15.7055 16.1857 15.8443C16.3901 16.2493 16.6311 16.6361 16.9058 17C18.1228 16.6354 19.2649 16.0682 20.2808 15.3238C20.5631 12.6793 19.8597 10.0242 18.2977 7.83808ZM11.4564 13.8193C11.118 13.794 10.8033 13.6415 10.5794 13.3945C10.3555 13.1475 10.2401 12.8254 10.258 12.4971C10.2879 12.2738 10.3837 12.0635 10.534 11.8916C10.6842 11.7196 10.8823 11.5933 11.1048 11.5276C11.3272 11.462 11.5645 11.4599 11.7882 11.5216C12.0118 11.5833 12.2123 11.7061 12.3657 11.8753C12.5192 12.0446 12.6189 12.2531 12.6531 12.4759C12.6873 12.6987 12.6545 12.9263 12.5585 13.1315C12.4625 13.3366 12.3075 13.5107 12.112 13.6327C11.9165 13.7547 11.6889 13.8195 11.4564 13.8193ZM15.8847 13.8193C15.5522 13.7788 15.2463 13.6222 15.0246 13.3787C14.8029 13.1353 14.6806 12.8218 14.6806 12.4971C14.6806 12.1725 14.8029 11.859 15.0246 11.6155C15.2463 11.3721 15.5522 11.2154 15.8847 11.1749C16.0535 11.1841 16.2187 11.2258 16.3707 11.2975C16.5227 11.3693 16.6585 11.4696 16.77 11.5927C16.8816 11.7158 16.9667 11.8591 17.0205 12.0144C17.0742 12.1697 17.0956 12.3338 17.0832 12.4971C17.1038 12.8261 16.9895 13.1496 16.765 13.3972C16.5405 13.6449 16.2241 13.7966 15.8847 13.8193Z" fill="#1E1E1C"/>
</svg>
