<svg width="29" height="24" viewBox="0 0 29 24" fill="none" xmlns="http://www.w3.org/2000/svg">
<path d="M20.0012 17.9941V13.5991C20.0012 11.4391 19.5361 9.78906 17.0161 9.78906C15.8011 9.78906 14.9911 10.4491 14.6611 11.0791H14.6311V9.98406H12.2461V17.9941H14.7361V14.0191C14.7361 12.9691 14.9311 11.9641 16.2211 11.9641C17.4961 11.9641 17.5111 13.1491 17.5111 14.0791V17.9791H20.0012V17.9941Z" fill="#1E1E1C"/>
<path d="M8.19531 9.99219H10.6853V18.0022H8.19531V9.99219Z" fill="#1E1E1C"/>
<path d="M9.44001 6C8.645 6 8 6.645 8 7.44001C8 8.23502 8.645 8.89502 9.44001 8.89502C10.235 8.89502 10.88 8.23502 10.88 7.44001C10.88 6.645 10.235 6 9.44001 6Z" fill="#1E1E1C"/>
</svg>
