<svg width="29" height="24" viewBox="0 0 29 24" fill="none" xmlns="http://www.w3.org/2000/svg">
<path d="M15.4608 12.2594C15.4608 14.6119 13.5668 16.5189 11.2304 16.5189C8.89401 16.5189 7 14.6119 7 12.2594C7 9.90702 8.89401 8 11.2304 8C13.5668 8 15.4608 9.90702 15.4608 12.2594Z" fill="#1E1E1C"/>
<path d="M20.1015 12.2595C20.1015 14.4739 19.1545 16.269 17.9863 16.269C16.8181 16.269 15.8711 14.4739 15.8711 12.2595C15.8711 10.0451 16.8181 8.25 17.9863 8.25C19.1545 8.25 20.1015 10.0451 20.1015 12.2595Z" fill="#1E1E1C"/>
<path d="M21.9996 12.2642C21.9996 14.2482 21.6665 15.8566 21.2556 15.8566C20.8447 15.8566 20.5117 14.2482 20.5117 12.2642C20.5117 10.2802 20.8447 8.67188 21.2556 8.67188C21.6665 8.67188 21.9996 10.2802 21.9996 12.2642Z" fill="#1E1E1C"/>
</svg>
