<svg width="110" height="44" viewBox="0 0 110 44" fill="none" xmlns="http://www.w3.org/2000/svg">
<path d="M44 17.8945H46.8054V30.4953H53.8402V33.0015H44.0009V17.8945H44Z" fill="black"/>
<path d="M72.5444 17.8945L76.9673 24.8853L79.5993 29.287L79.6213 17.8945H82.3185V32.998H79.1893L74.8517 26.3522L72.0463 21.734L72.1114 32.998H69.3931L69.3711 17.8945H72.5435H72.5444Z" fill="black"/>
<path d="M87.976 32.3088C86.8681 31.6611 86.0013 30.7477 85.3765 29.5676C84.7508 28.3884 84.4375 27.0218 84.4375 25.4686C84.4375 23.9154 84.7358 22.5311 85.3333 21.3581C85.9291 20.1859 86.7924 19.2795 87.9223 18.6398C89.0513 18 90.3854 17.6797 91.9254 17.6797C93.7945 17.6797 95.3451 18.169 96.5753 19.1466C97.8056 20.1252 98.6143 21.4698 99.0033 23.1814H96.1116C95.8388 22.261 95.3381 21.5235 94.6121 20.97C93.8861 20.4156 93.0113 20.1393 91.9905 20.1393C90.5095 20.1393 89.3655 20.6215 88.5603 21.5842C87.7542 22.5478 87.3512 23.8432 87.3512 25.4686C87.3512 27.0939 87.7683 28.3954 88.6034 29.374C89.4377 30.3526 90.5737 30.841 92.0125 30.841C92.9902 30.841 93.7919 30.6614 94.4185 30.3015C95.0441 29.9425 95.4973 29.4849 95.7772 28.9314C96.0579 28.3778 96.1987 27.8067 96.1987 27.2162H90.4805V24.9071H98.8739V32.9987H96.695V30.0428L96.673 29.5896C96.4002 30.4678 95.8969 31.3021 95.1629 32.0923C94.429 32.8834 93.2929 33.2786 91.7538 33.2786C90.3441 33.2786 89.0857 32.9556 87.9777 32.3088H87.976Z" fill="black"/>
<path d="M67.7377 17.8984L62.1092 33.0028H58.7652L53.1367 17.8984H56.0134L59.0521 26.3852C59.3759 27.3021 59.6276 28.2552 59.735 29.2082C59.7886 29.7476 59.8071 30.2334 59.7886 30.6646H61.0831C61.0655 30.2334 61.0831 29.7476 61.1368 29.2082C61.245 28.2552 61.4967 27.3021 61.8197 26.3852L64.8583 17.8984H67.735H67.7377Z" fill="black"/>
<path d="M11.9478 17.707V32.9997H11.4734V22.1229L11 22.0085V18.3706L11.9478 17.707Z" fill="black"/>
<path d="M32.9999 19.0152V32.9993H31.598V27.5222L30.1953 27.1438V17.0625L32.9999 19.0152Z" fill="black"/>
<path d="M22.4845 11.6626V33H21.5367V24.8327L20.5898 24.5678V11.6626L21.5367 11L22.4845 11.6626Z" fill="black"/>
<path d="M17.2181 14.0312V32.9996H16.5167V23.4868L15.7969 23.2792V15.0168L17.2181 14.0312Z" fill="black"/>
<path d="M27.7713 15.3592V33.0014H26.5965V26.1797L25.4023 25.8576V13.7109L27.7713 15.3592Z" fill="black"/>
</svg>
